<?xml version="1.0" encoding="utf-8"?>
<!-- Generator: Adobe Illustrator 16.0.0, SVG Export Plug-In . SVG Version: 6.00 Build 0)  -->
<!DOCTYPE svg PUBLIC "-//W3C//DTD SVG 1.1//EN" "http://www.w3.org/Graphics/SVG/1.1/DTD/svg11.dtd">
<svg version="1.1" id="Layer_1" xmlns="http://www.w3.org/2000/svg" xmlns:xlink="http://www.w3.org/1999/xlink" x="0px" y="0px"
	 width="350px" height="350px" viewBox="0 0 350 350" enable-background="new 0 0 350 350" xml:space="preserve">
<g>
	<path d="M137.885,116.542c6.036,0,13.316,1.246,21.846,3.741c8.608,2.496,14.321,3.742,17.138,3.742
		c3.621,0,9.534-1.408,17.742-4.225c8.207-2.814,15.328-4.224,21.362-4.224c9.896,0,18.707,2.656,26.432,7.966
		c4.346,3.057,8.65,7.201,12.914,12.432c-6.437,5.472-11.144,10.34-14.121,14.604c-5.391,7.724-8.086,16.253-8.086,25.587
		c0,10.217,2.856,19.43,8.569,27.639c5.713,8.207,12.229,13.396,19.556,15.569c-3.062,9.896-8.13,20.245-15.211,31.023
		c-10.701,16.169-21.322,24.256-31.863,24.256c-4.184,0-9.978-1.321-17.38-3.983c-7.321-2.66-13.518-3.982-18.587-3.982
		c-5.069,0-10.982,1.375-17.741,4.104c-6.679,2.814-12.109,4.223-16.294,4.223c-12.632,0-25.023-10.694-37.173-32.1
		c-12.15-21.166-18.225-41.926-18.225-62.282c0-18.909,4.627-34.316,13.88-46.226C111.977,122.495,123.724,116.542,137.885,116.542
		 M213.922,68.988c0.322,1.047,0.523,1.972,0.604,2.776c0.08,0.806,0.121,1.61,0.121,2.415c0,5.15-1.207,10.781-3.621,16.897
		c-2.414,6.114-6.236,11.788-11.466,17.018c-4.506,4.425-8.972,7.402-13.397,8.931c-2.815,0.886-7.08,1.569-12.793,2.051
		c0.162-12.23,3.339-22.811,9.534-31.743c6.276-8.93,16.616-15.045,31.019-18.344"/>
</g>
</svg>
